<?xml version="1.0" encoding="utf-8" standalone="no"?>
<!DOCTYPE svg PUBLIC "-//W3C//DTD SVG 1.1//EN"
  "http://www.w3.org/Graphics/SVG/1.1/DTD/svg11.dtd">
<svg xmlns:xlink="http://www.w3.org/1999/xlink" width="240.982812pt" height="169.678125pt" viewBox="0 0 240.982812 169.678125" xmlns="http://www.w3.org/2000/svg" version="1.1">
 <metadata>
  <rdf:RDF xmlns:dc="http://purl.org/dc/elements/1.1/" xmlns:cc="http://creativecommons.org/ns#" xmlns:rdf="http://www.w3.org/1999/02/22-rdf-syntax-ns#">
   <cc:Work>
    <dc:type rdf:resource="http://purl.org/dc/dcmitype/StillImage"/>
    <dc:date>2023-07-01T11:10:49.526072</dc:date>
    <dc:format>image/svg+xml</dc:format>
    <dc:creator>
     <cc:Agent>
      <dc:title>Matplotlib v3.5.1, https://matplotlib.org/</dc:title>
     </cc:Agent>
    </dc:creator>
   </cc:Work>
  </rdf:RDF>
 </metadata>
 <defs>
  <style type="text/css">*{stroke-linejoin: round; stroke-linecap: butt}</style>
 </defs>
 <g id="figure_1">
  <g id="patch_1">
   <path d="M -0 169.678125 
L 240.982813 169.678125 
L 240.982813 0 
L -0 0 
z
" style="fill: #ffffff"/>
  </g>
  <g id="axes_1">
   <g id="patch_2">
    <path d="M 38.482813 145.8 
L 233.782813 145.8 
L 233.782813 7.2 
L 38.482813 7.2 
z
" style="fill: #ffffff"/>
   </g>
   <g id="matplotlib.axis_1">
    <g id="xtick_1">
     <g id="line2d_1">
      <path d="M 79.618339 145.8 
L 79.618339 7.2 
" clip-path="url(#p7038e8ce46)" style="fill: none; stroke: #b0b0b0; stroke-width: 0.8; stroke-linecap: square"/>
     </g>
     <g id="line2d_2">
      <defs>
       <path id="m4bad3d19cc" d="M 0 0 
L 0 3.5 
" style="stroke: #000000; stroke-width: 0.8"/>
      </defs>
      <g>
       <use xlink:href="#m4bad3d19cc" x="79.618339" y="145.8" style="stroke: #000000; stroke-width: 0.8"/>
      </g>
     </g>
     <g id="text_1">
      <!-- −2 -->
      <g transform="translate(72.247245 160.398438)scale(0.1 -0.1)">
       <defs>
        <path id="DejaVuSans-2212" d="M 678 2272 
L 4684 2272 
L 4684 1741 
L 678 1741 
L 678 2272 
z
" transform="scale(0.015625)"/>
        <path id="DejaVuSans-32" d="M 1228 531 
L 3431 531 
L 3431 0 
L 469 0 
L 469 531 
Q 828 903 1448 1529 
Q 2069 2156 2228 2338 
Q 2531 2678 2651 2914 
Q 2772 3150 2772 3378 
Q 2772 3750 2511 3984 
Q 2250 4219 1831 4219 
Q 1534 4219 1204 4116 
Q 875 4013 500 3803 
L 500 4441 
Q 881 4594 1212 4672 
Q 1544 4750 1819 4750 
Q 2544 4750 2975 4387 
Q 3406 4025 3406 3419 
Q 3406 3131 3298 2873 
Q 3191 2616 2906 2266 
Q 2828 2175 2409 1742 
Q 1991 1309 1228 531 
z
" transform="scale(0.015625)"/>
       </defs>
       <use xlink:href="#DejaVuSans-2212"/>
       <use xlink:href="#DejaVuSans-32" x="83.789062"/>
      </g>
     </g>
    </g>
    <g id="xtick_2">
     <g id="line2d_3">
      <path d="M 136.132812 145.8 
L 136.132812 7.2 
" clip-path="url(#p7038e8ce46)" style="fill: none; stroke: #b0b0b0; stroke-width: 0.8; stroke-linecap: square"/>
     </g>
     <g id="line2d_4">
      <g>
       <use xlink:href="#m4bad3d19cc" x="136.132812" y="145.8" style="stroke: #000000; stroke-width: 0.8"/>
      </g>
     </g>
     <g id="text_2">
      <!-- 0 -->
      <g transform="translate(132.951562 160.398438)scale(0.1 -0.1)">
       <defs>
        <path id="DejaVuSans-30" d="M 2034 4250 
Q 1547 4250 1301 3770 
Q 1056 3291 1056 2328 
Q 1056 1369 1301 889 
Q 1547 409 2034 409 
Q 2525 409 2770 889 
Q 3016 1369 3016 2328 
Q 3016 3291 2770 3770 
Q 2525 4250 2034 4250 
z
M 2034 4750 
Q 2819 4750 3233 4129 
Q 3647 3509 3647 2328 
Q 3647 1150 3233 529 
Q 2819 -91 2034 -91 
Q 1250 -91 836 529 
Q 422 1150 422 2328 
Q 422 3509 836 4129 
Q 1250 4750 2034 4750 
z
" transform="scale(0.015625)"/>
       </defs>
       <use xlink:href="#DejaVuSans-30"/>
      </g>
     </g>
    </g>
    <g id="xtick_3">
     <g id="line2d_5">
      <path d="M 192.647286 145.8 
L 192.647286 7.2 
" clip-path="url(#p7038e8ce46)" style="fill: none; stroke: #b0b0b0; stroke-width: 0.8; stroke-linecap: square"/>
     </g>
     <g id="line2d_6">
      <g>
       <use xlink:href="#m4bad3d19cc" x="192.647286" y="145.8" style="stroke: #000000; stroke-width: 0.8"/>
      </g>
     </g>
     <g id="text_3">
      <!-- 2 -->
      <g transform="translate(189.466036 160.398438)scale(0.1 -0.1)">
       <use xlink:href="#DejaVuSans-32"/>
      </g>
     </g>
    </g>
   </g>
   <g id="matplotlib.axis_2">
    <g id="ytick_1">
     <g id="line2d_7">
      <path d="M 38.482813 139.5 
L 233.782813 139.5 
" clip-path="url(#p7038e8ce46)" style="fill: none; stroke: #b0b0b0; stroke-width: 0.8; stroke-linecap: square"/>
     </g>
     <g id="line2d_8">
      <defs>
       <path id="m6f46f87a3b" d="M 0 0 
L -3.5 0 
" style="stroke: #000000; stroke-width: 0.8"/>
      </defs>
      <g>
       <use xlink:href="#m6f46f87a3b" x="38.482813" y="139.5" style="stroke: #000000; stroke-width: 0.8"/>
      </g>
     </g>
     <g id="text_4">
      <!-- −1.0 -->
      <g transform="translate(7.2 143.299219)scale(0.1 -0.1)">
       <defs>
        <path id="DejaVuSans-31" d="M 794 531 
L 1825 531 
L 1825 4091 
L 703 3866 
L 703 4441 
L 1819 4666 
L 2450 4666 
L 2450 531 
L 3481 531 
L 3481 0 
L 794 0 
L 794 531 
z
" transform="scale(0.015625)"/>
        <path id="DejaVuSans-2e" d="M 684 794 
L 1344 794 
L 1344 0 
L 684 0 
L 684 794 
z
" transform="scale(0.015625)"/>
       </defs>
       <use xlink:href="#DejaVuSans-2212"/>
       <use xlink:href="#DejaVuSans-31" x="83.789062"/>
       <use xlink:href="#DejaVuSans-2e" x="147.412109"/>
       <use xlink:href="#DejaVuSans-30" x="179.199219"/>
      </g>
     </g>
    </g>
    <g id="ytick_2">
     <g id="line2d_9">
      <path d="M 38.482813 107.998017 
L 233.782813 107.998017 
" clip-path="url(#p7038e8ce46)" style="fill: none; stroke: #b0b0b0; stroke-width: 0.8; stroke-linecap: square"/>
     </g>
     <g id="line2d_10">
      <g>
       <use xlink:href="#m6f46f87a3b" x="38.482813" y="107.998017" style="stroke: #000000; stroke-width: 0.8"/>
      </g>
     </g>
     <g id="text_5">
      <!-- −0.5 -->
      <g transform="translate(7.2 111.797236)scale(0.1 -0.1)">
       <defs>
        <path id="DejaVuSans-35" d="M 691 4666 
L 3169 4666 
L 3169 4134 
L 1269 4134 
L 1269 2991 
Q 1406 3038 1543 3061 
Q 1681 3084 1819 3084 
Q 2600 3084 3056 2656 
Q 3513 2228 3513 1497 
Q 3513 744 3044 326 
Q 2575 -91 1722 -91 
Q 1428 -91 1123 -41 
Q 819 9 494 109 
L 494 744 
Q 775 591 1075 516 
Q 1375 441 1709 441 
Q 2250 441 2565 725 
Q 2881 1009 2881 1497 
Q 2881 1984 2565 2268 
Q 2250 2553 1709 2553 
Q 1456 2553 1204 2497 
Q 953 2441 691 2322 
L 691 4666 
z
" transform="scale(0.015625)"/>
       </defs>
       <use xlink:href="#DejaVuSans-2212"/>
       <use xlink:href="#DejaVuSans-30" x="83.789062"/>
       <use xlink:href="#DejaVuSans-2e" x="147.412109"/>
       <use xlink:href="#DejaVuSans-35" x="179.199219"/>
      </g>
     </g>
    </g>
    <g id="ytick_3">
     <g id="line2d_11">
      <path d="M 38.482813 76.496035 
L 233.782813 76.496035 
" clip-path="url(#p7038e8ce46)" style="fill: none; stroke: #b0b0b0; stroke-width: 0.8; stroke-linecap: square"/>
     </g>
     <g id="line2d_12">
      <g>
       <use xlink:href="#m6f46f87a3b" x="38.482813" y="76.496035" style="stroke: #000000; stroke-width: 0.8"/>
      </g>
     </g>
     <g id="text_6">
      <!-- 0.0 -->
      <g transform="translate(15.579688 80.295254)scale(0.1 -0.1)">
       <use xlink:href="#DejaVuSans-30"/>
       <use xlink:href="#DejaVuSans-2e" x="63.623047"/>
       <use xlink:href="#DejaVuSans-30" x="95.410156"/>
      </g>
     </g>
    </g>
    <g id="ytick_4">
     <g id="line2d_13">
      <path d="M 38.482813 44.994052 
L 233.782813 44.994052 
" clip-path="url(#p7038e8ce46)" style="fill: none; stroke: #b0b0b0; stroke-width: 0.8; stroke-linecap: square"/>
     </g>
     <g id="line2d_14">
      <g>
       <use xlink:href="#m6f46f87a3b" x="38.482813" y="44.994052" style="stroke: #000000; stroke-width: 0.8"/>
      </g>
     </g>
     <g id="text_7">
      <!-- 0.5 -->
      <g transform="translate(15.579688 48.793271)scale(0.1 -0.1)">
       <use xlink:href="#DejaVuSans-30"/>
       <use xlink:href="#DejaVuSans-2e" x="63.623047"/>
       <use xlink:href="#DejaVuSans-35" x="95.410156"/>
      </g>
     </g>
    </g>
    <g id="ytick_5">
     <g id="line2d_15">
      <path d="M 38.482813 13.49207 
L 233.782813 13.49207 
" clip-path="url(#p7038e8ce46)" style="fill: none; stroke: #b0b0b0; stroke-width: 0.8; stroke-linecap: square"/>
     </g>
     <g id="line2d_16">
      <g>
       <use xlink:href="#m6f46f87a3b" x="38.482813" y="13.49207" style="stroke: #000000; stroke-width: 0.8"/>
      </g>
     </g>
     <g id="text_8">
      <!-- 1.0 -->
      <g transform="translate(15.579688 17.291288)scale(0.1 -0.1)">
       <use xlink:href="#DejaVuSans-31"/>
       <use xlink:href="#DejaVuSans-2e" x="63.623047"/>
       <use xlink:href="#DejaVuSans-30" x="95.410156"/>
      </g>
     </g>
    </g>
   </g>
   <g id="line2d_17">
    <path d="M 47.360085 76.496035 
L 49.153474 80.491993 
L 50.946862 84.471861 
L 52.740251 88.419614 
L 54.533639 92.319354 
L 56.327027 96.155379 
L 58.120416 99.912243 
L 59.913804 103.574818 
L 61.707193 107.128357 
L 63.500581 110.55855 
L 65.29397 113.851585 
L 67.087358 116.994203 
L 68.880746 119.973749 
L 70.674135 122.778225 
L 72.467523 125.39634 
L 74.260912 127.81755 
L 76.0543 130.032106 
L 77.847689 132.031092 
L 79.641077 133.806457 
L 81.434465 135.351054 
L 83.227854 136.658662 
L 85.021242 137.724017 
L 86.814631 138.542828 
L 88.608019 139.111799 
L 90.401408 139.428638 
L 92.194796 139.49207 
L 93.988184 139.301838 
L 95.781573 138.85871 
L 97.574961 138.16447 
L 99.36835 137.221913 
L 101.161738 136.034833 
L 102.955127 134.608013 
L 104.748515 132.947195 
L 106.541903 131.059069 
L 108.335292 128.951237 
L 110.12868 126.632186 
L 111.922069 124.111255 
L 113.715457 121.398594 
L 115.508846 118.505126 
L 117.302234 115.442502 
L 119.095622 112.223055 
L 120.889011 108.859747 
L 122.682399 105.366123 
L 124.475788 101.756248 
L 126.269176 98.04466 
L 128.062565 94.246303 
L 129.855953 90.376472 
L 131.649341 86.450749 
L 133.44273 82.484942 
L 135.236118 78.49502 
L 137.029507 74.497049 
L 138.822895 70.507127 
L 140.616284 66.54132 
L 142.409672 62.615598 
L 144.20306 58.745767 
L 145.996449 54.94741 
L 147.789837 51.235821 
L 149.583226 47.625947 
L 151.376614 44.132322 
L 153.170003 40.769015 
L 154.963391 37.549567 
L 156.756779 34.486944 
L 158.550168 31.593476 
L 160.343556 28.880815 
L 162.136945 26.359883 
L 163.930333 24.040833 
L 165.723722 21.933 
L 167.51711 20.044874 
L 169.310498 18.384057 
L 171.103887 16.957236 
L 172.897275 15.770157 
L 174.690664 14.827599 
L 176.484052 14.133359 
L 178.277441 13.690231 
L 180.070829 13.5 
L 181.864217 13.563432 
L 183.657606 13.880271 
L 185.450994 14.449241 
L 187.244383 15.268053 
L 189.037771 16.333407 
L 190.83116 17.641015 
L 192.624548 19.185612 
L 194.417936 20.960978 
L 196.211325 22.959963 
L 198.004713 25.17452 
L 199.798102 27.59573 
L 201.59149 30.213844 
L 203.384879 33.018321 
L 205.178267 35.997867 
L 206.971655 39.140484 
L 208.765044 42.43352 
L 210.558432 45.863713 
L 212.351821 49.417251 
L 214.145209 53.079826 
L 215.938598 56.83669 
L 217.731986 60.672716 
L 219.525374 64.572456 
L 221.318763 68.520208 
L 223.112151 72.500076 
L 224.90554 76.496035 
" clip-path="url(#p7038e8ce46)" style="fill: none; stroke: #1f77b4; stroke-width: 1.5; stroke-linecap: square"/>
   </g>
   <g id="line2d_18">
    <path d="M 47.360085 139.5 
L 49.153474 139.373153 
L 50.946862 138.993121 
L 52.740251 138.361436 
L 54.533639 137.480641 
L 56.327027 136.354282 
L 58.120416 134.986896 
L 59.913804 133.383987 
L 61.707193 131.552011 
L 63.500581 129.498343 
L 65.29397 127.231254 
L 67.087358 124.759872 
L 68.880746 122.094149 
L 70.674135 119.244818 
L 72.467523 116.223353 
L 74.260912 113.04192 
L 76.0543 109.71333 
L 77.847689 106.250985 
L 79.641077 102.668828 
L 81.434465 98.981282 
L 83.227854 95.203196 
L 85.021242 91.349783 
L 86.814631 87.436559 
L 88.608019 83.479281 
L 90.401408 79.493884 
L 92.194796 75.496416 
L 93.988184 71.502973 
L 95.781573 67.529636 
L 97.574961 63.592403 
L 99.36835 59.707128 
L 101.161738 55.889456 
L 102.955127 52.15476 
L 104.748515 48.518077 
L 106.541903 44.994052 
L 108.335292 41.596874 
L 110.12868 38.340223 
L 111.922069 35.237212 
L 113.715457 32.300335 
L 115.508846 29.541419 
L 117.302234 26.971573 
L 119.095622 24.601144 
L 120.889011 22.439678 
L 122.682399 20.495877 
L 124.475788 18.777569 
L 126.269176 17.291674 
L 128.062565 16.044173 
L 129.855953 15.04009 
L 131.649341 14.283469 
L 133.44273 13.777356 
L 135.236118 13.523789 
L 137.029507 13.523789 
L 138.822895 13.777356 
L 140.616284 14.283469 
L 142.409672 15.04009 
L 144.20306 16.044173 
L 145.996449 17.291674 
L 147.789837 18.777569 
L 149.583226 20.495877 
L 151.376614 22.439678 
L 153.170003 24.601144 
L 154.963391 26.971573 
L 156.756779 29.541419 
L 158.550168 32.300335 
L 160.343556 35.237212 
L 162.136945 38.340223 
L 163.930333 41.596874 
L 165.723722 44.994052 
L 167.51711 48.518077 
L 169.310498 52.15476 
L 171.103887 55.889456 
L 172.897275 59.707128 
L 174.690664 63.592403 
L 176.484052 67.529636 
L 178.277441 71.502973 
L 180.070829 75.496416 
L 181.864217 79.493884 
L 183.657606 83.479281 
L 185.450994 87.436559 
L 187.244383 91.349783 
L 189.037771 95.203196 
L 190.83116 98.981282 
L 192.624548 102.668828 
L 194.417936 106.250985 
L 196.211325 109.71333 
L 198.004713 113.04192 
L 199.798102 116.223353 
L 201.59149 119.244818 
L 203.384879 122.094149 
L 205.178267 124.759872 
L 206.971655 127.231254 
L 208.765044 129.498343 
L 210.558432 131.552011 
L 212.351821 133.383987 
L 214.145209 134.986896 
L 215.938598 136.354282 
L 217.731986 137.480641 
L 219.525374 138.361436 
L 221.318763 138.993121 
L 223.112151 139.373153 
L 224.90554 139.5 
" clip-path="url(#p7038e8ce46)" style="fill: none; stroke-dasharray: 5.55,2.4; stroke-dashoffset: 0; stroke: #bf00bf; stroke-width: 1.5"/>
   </g>
   <g id="patch_3">
    <path d="M 38.482813 145.8 
L 38.482813 7.2 
" style="fill: none; stroke: #000000; stroke-width: 0.8; stroke-linejoin: miter; stroke-linecap: square"/>
   </g>
   <g id="patch_4">
    <path d="M 233.782813 145.8 
L 233.782813 7.2 
" style="fill: none; stroke: #000000; stroke-width: 0.8; stroke-linejoin: miter; stroke-linecap: square"/>
   </g>
   <g id="patch_5">
    <path d="M 38.482812 145.8 
L 233.782813 145.8 
" style="fill: none; stroke: #000000; stroke-width: 0.8; stroke-linejoin: miter; stroke-linecap: square"/>
   </g>
   <g id="patch_6">
    <path d="M 38.482812 7.2 
L 233.782813 7.2 
" style="fill: none; stroke: #000000; stroke-width: 0.8; stroke-linejoin: miter; stroke-linecap: square"/>
   </g>
   <g id="legend_1">
    <g id="patch_7">
     <path d="M 45.482813 44.55625 
L 108.03125 44.55625 
Q 110.03125 44.55625 110.03125 42.55625 
L 110.03125 14.2 
Q 110.03125 12.2 108.03125 12.2 
L 45.482813 12.2 
Q 43.482813 12.2 43.482813 14.2 
L 43.482813 42.55625 
Q 43.482813 44.55625 45.482813 44.55625 
z
" style="fill: #ffffff; opacity: 0.8; stroke: #cccccc; stroke-linejoin: miter"/>
    </g>
    <g id="line2d_19">
     <path d="M 47.482813 20.298438 
L 57.482813 20.298438 
L 67.482813 20.298438 
" style="fill: none; stroke: #1f77b4; stroke-width: 1.5; stroke-linecap: square"/>
    </g>
    <g id="text_9">
     <!-- sin(x) -->
     <g transform="translate(75.482813 23.798438)scale(0.1 -0.1)">
      <defs>
       <path id="DejaVuSans-73" d="M 2834 3397 
L 2834 2853 
Q 2591 2978 2328 3040 
Q 2066 3103 1784 3103 
Q 1356 3103 1142 2972 
Q 928 2841 928 2578 
Q 928 2378 1081 2264 
Q 1234 2150 1697 2047 
L 1894 2003 
Q 2506 1872 2764 1633 
Q 3022 1394 3022 966 
Q 3022 478 2636 193 
Q 2250 -91 1575 -91 
Q 1294 -91 989 -36 
Q 684 19 347 128 
L 347 722 
Q 666 556 975 473 
Q 1284 391 1588 391 
Q 1994 391 2212 530 
Q 2431 669 2431 922 
Q 2431 1156 2273 1281 
Q 2116 1406 1581 1522 
L 1381 1569 
Q 847 1681 609 1914 
Q 372 2147 372 2553 
Q 372 3047 722 3315 
Q 1072 3584 1716 3584 
Q 2034 3584 2315 3537 
Q 2597 3491 2834 3397 
z
" transform="scale(0.015625)"/>
       <path id="DejaVuSans-69" d="M 603 3500 
L 1178 3500 
L 1178 0 
L 603 0 
L 603 3500 
z
M 603 4863 
L 1178 4863 
L 1178 4134 
L 603 4134 
L 603 4863 
z
" transform="scale(0.015625)"/>
       <path id="DejaVuSans-6e" d="M 3513 2113 
L 3513 0 
L 2938 0 
L 2938 2094 
Q 2938 2591 2744 2837 
Q 2550 3084 2163 3084 
Q 1697 3084 1428 2787 
Q 1159 2491 1159 1978 
L 1159 0 
L 581 0 
L 581 3500 
L 1159 3500 
L 1159 2956 
Q 1366 3272 1645 3428 
Q 1925 3584 2291 3584 
Q 2894 3584 3203 3211 
Q 3513 2838 3513 2113 
z
" transform="scale(0.015625)"/>
       <path id="DejaVuSans-28" d="M 1984 4856 
Q 1566 4138 1362 3434 
Q 1159 2731 1159 2009 
Q 1159 1288 1364 580 
Q 1569 -128 1984 -844 
L 1484 -844 
Q 1016 -109 783 600 
Q 550 1309 550 2009 
Q 550 2706 781 3412 
Q 1013 4119 1484 4856 
L 1984 4856 
z
" transform="scale(0.015625)"/>
       <path id="DejaVuSans-78" d="M 3513 3500 
L 2247 1797 
L 3578 0 
L 2900 0 
L 1881 1375 
L 863 0 
L 184 0 
L 1544 1831 
L 300 3500 
L 978 3500 
L 1906 2253 
L 2834 3500 
L 3513 3500 
z
" transform="scale(0.015625)"/>
       <path id="DejaVuSans-29" d="M 513 4856 
L 1013 4856 
Q 1481 4119 1714 3412 
Q 1947 2706 1947 2009 
Q 1947 1309 1714 600 
Q 1481 -109 1013 -844 
L 513 -844 
Q 928 -128 1133 580 
Q 1338 1288 1338 2009 
Q 1338 2731 1133 3434 
Q 928 4138 513 4856 
z
" transform="scale(0.015625)"/>
      </defs>
      <use xlink:href="#DejaVuSans-73"/>
      <use xlink:href="#DejaVuSans-69" x="52.099609"/>
      <use xlink:href="#DejaVuSans-6e" x="79.882812"/>
      <use xlink:href="#DejaVuSans-28" x="143.261719"/>
      <use xlink:href="#DejaVuSans-78" x="182.275391"/>
      <use xlink:href="#DejaVuSans-29" x="241.455078"/>
     </g>
    </g>
    <g id="line2d_20">
     <path d="M 47.482813 34.976563 
L 57.482813 34.976563 
L 67.482813 34.976563 
" style="fill: none; stroke-dasharray: 5.55,2.4; stroke-dashoffset: 0; stroke: #bf00bf; stroke-width: 1.5"/>
    </g>
    <g id="text_10">
     <!-- cos(x) -->
     <g transform="translate(75.482813 38.476563)scale(0.1 -0.1)">
      <defs>
       <path id="DejaVuSans-63" d="M 3122 3366 
L 3122 2828 
Q 2878 2963 2633 3030 
Q 2388 3097 2138 3097 
Q 1578 3097 1268 2742 
Q 959 2388 959 1747 
Q 959 1106 1268 751 
Q 1578 397 2138 397 
Q 2388 397 2633 464 
Q 2878 531 3122 666 
L 3122 134 
Q 2881 22 2623 -34 
Q 2366 -91 2075 -91 
Q 1284 -91 818 406 
Q 353 903 353 1747 
Q 353 2603 823 3093 
Q 1294 3584 2113 3584 
Q 2378 3584 2631 3529 
Q 2884 3475 3122 3366 
z
" transform="scale(0.015625)"/>
       <path id="DejaVuSans-6f" d="M 1959 3097 
Q 1497 3097 1228 2736 
Q 959 2375 959 1747 
Q 959 1119 1226 758 
Q 1494 397 1959 397 
Q 2419 397 2687 759 
Q 2956 1122 2956 1747 
Q 2956 2369 2687 2733 
Q 2419 3097 1959 3097 
z
M 1959 3584 
Q 2709 3584 3137 3096 
Q 3566 2609 3566 1747 
Q 3566 888 3137 398 
Q 2709 -91 1959 -91 
Q 1206 -91 779 398 
Q 353 888 353 1747 
Q 353 2609 779 3096 
Q 1206 3584 1959 3584 
z
" transform="scale(0.015625)"/>
      </defs>
      <use xlink:href="#DejaVuSans-63"/>
      <use xlink:href="#DejaVuSans-6f" x="54.980469"/>
      <use xlink:href="#DejaVuSans-73" x="116.162109"/>
      <use xlink:href="#DejaVuSans-28" x="168.261719"/>
      <use xlink:href="#DejaVuSans-78" x="207.275391"/>
      <use xlink:href="#DejaVuSans-29" x="266.455078"/>
     </g>
    </g>
   </g>
  </g>
 </g>
 <defs>
  <clipPath id="p7038e8ce46">
   <rect x="38.482813" y="7.2" width="195.3" height="138.6"/>
  </clipPath>
 </defs>
</svg>
